<?xml version="1.0" encoding="utf-8"?>
<!-- Generator: Adobe Illustrator 27.9.0, SVG Export Plug-In . SVG Version: 6.00 Build 0)  -->
<svg version="1.1" id="Layer_1" xmlns="http://www.w3.org/2000/svg" xmlns:xlink="http://www.w3.org/1999/xlink" x="0px" y="0px"
	 viewBox="0 0 920.5 430.6" style="enable-background:new 0 0 920.5 430.6;" xml:space="preserve">
<style type="text/css">
	.st0{display:none;}
	.st1{display:inline;}
	.st2{clip-path:url(#SVGID_00000015329665032515740560000006014850054569937574_);}
	.st3{clip-path:url(#SVGID_00000170275766041963671370000016736614039022564014_);}
	.st4{clip-path:url(#SVGID_00000072255405091764058010000003666688619043778689_);}
	.st5{fill:#002457;}
	.st6{fill:#231F20;}
	.st7{fill:url(#SVGID_00000033354720863560964260000002282065362366274982_);}
</style>
<g class="st0">
	<g class="st1">
		<defs>
			<rect id="SVGID_1_" x="-1118" y="9.7" width="915" height="353.6"/>
		</defs>
		<clipPath id="SVGID_00000036973981749588922370000005457902603961156787_">
			<use xlink:href="#SVGID_1_"  style="overflow:visible;"/>
		</clipPath>
		<g style="clip-path:url(#SVGID_00000036973981749588922370000005457902603961156787_);">
			<g>
				<defs>
					<rect id="SVGID_00000059296673921213531380000008571414296095950984_" x="-1118" y="9.7" width="919.4" height="353.6"/>
				</defs>
				<clipPath id="SVGID_00000035498387630006506070000017525425840605465018_">
					<use xlink:href="#SVGID_00000059296673921213531380000008571414296095950984_"  style="overflow:visible;"/>
				</clipPath>
				<g style="clip-path:url(#SVGID_00000035498387630006506070000017525425840605465018_);">
					<g>
						<defs>
							<rect id="SVGID_00000139288501561915406900000001443471224329455249_" x="-1118" y="9.7" width="915" height="353.6"/>
						</defs>
						<clipPath id="SVGID_00000065780056761468141830000007611993585156180894_">
							<use xlink:href="#SVGID_00000139288501561915406900000001443471224329455249_"  style="overflow:visible;"/>
						</clipPath>
						<g style="clip-path:url(#SVGID_00000065780056761468141830000007611993585156180894_);">
						</g>
					</g>
				</g>
			</g>
		</g>
	</g>
</g>
<g>
	<polygon points="159,245.5 26,245.5 26,50.5 894.5,50.5 894.5,54.5 30,54.5 30,241.5 159,241.5 	"/>
	<g>
		<path class="st5" d="M117.7,151.6H83.9v31.3h37.6v9.4H72.8v-86.7h46.8v9.4H83.9v27.4h33.7L117.7,151.6L117.7,151.6z"/>
		<path class="st5" d="M136.1,192.3v-86.7h12.2l27.8,43.9c6.4,10.2,11.5,19.3,15.6,28.2l0.3-0.1c-1-11.6-1.3-22.1-1.3-35.6v-36.4
			h10.6v86.7H190l-27.5-44c-6-9.6-11.8-19.6-16.2-28.9l-0.4,0.1c0.6,10.9,0.9,21.4,0.9,35.8v37.1L136.1,192.3L136.1,192.3z"/>
		<path class="st5" d="M286.7,188.4c-5,1.8-14.9,4.8-26.6,4.8c-13.1,0-23.9-3.3-32.4-11.5c-7.5-7.2-12.1-18.8-12.1-32.3
			c0.1-25.9,17.9-44.8,47-44.8c10,0,17.9,2.2,21.6,4l-2.7,9.1c-4.6-2.1-10.4-3.7-19.2-3.7c-21.1,0-34.9,13.1-34.9,34.9
			c0,22,13.3,35,33.5,35c7.3,0,12.4-1,14.9-2.3v-25.9h-17.6v-9h28.6L286.7,188.4L286.7,188.4z"/>
		<path class="st5" d="M303.8,105.6H315v77.3h37.1v9.4h-48.2v-86.7H303.8z"/>
		<path class="st5" d="M409.5,151.6h-33.7v31.3h37.6v9.4h-48.8v-86.7h46.8v9.4h-35.6v27.4h33.7V151.6z"/>
		<path class="st5" d="M500.9,154.2c-0.6-12.1-1.4-26.6-1.3-37.4h-0.4c-3,10.2-6.6,21-10.9,32.9L473,191.8h-8.5l-14-41.3
			c-4.1-12.2-7.6-23.4-10-33.7h-0.3c-0.3,10.8-0.9,25.3-1.7,38.3l-2.3,37.2h-10.7l6-86.7h14.3l14.8,41.9c3.6,10.7,6.6,20.2,8.7,29.2
			h0.4c2.2-8.7,5.3-18.3,9.1-29.2l15.4-41.9h14.3l5.4,86.7H503L500.9,154.2z"/>
		<path class="st5" d="M605.4,148c0,29.8-18.1,45.7-40.3,45.7c-22.9,0-39-17.8-39-44c0-27.5,17.1-45.5,40.3-45.5
			C590.1,104.2,605.4,122.3,605.4,148z M538.1,149.4c0,18.5,10,35.1,27.7,35.1c17.8,0,27.8-16.3,27.8-36c0-17.2-9-35.3-27.7-35.3
			C547.4,113.3,538.1,130.4,538.1,149.4z"/>
		<path class="st5" d="M631.1,105.6v51.3c0,19.4,8.6,27.7,20.2,27.7c12.9,0,21.1-8.5,21.1-27.7v-51.3h11.3v50.6
			c0,26.6-14,37.6-32.8,37.6c-17.8,0-31.1-10.2-31.1-37.1v-51.1H631.1z"/>
		<path class="st5" d="M703.2,192.3v-86.7h12.2l27.8,43.9c6.4,10.2,11.5,19.3,15.6,28.2l0.3-0.1c-1-11.6-1.3-22.1-1.3-35.6v-36.4
			h10.6v86.7H757l-27.5-44c-6-9.6-11.8-19.6-16.2-28.9l-0.4,0.1c0.6,10.9,0.9,21.4,0.9,35.8v37.1L703.2,192.3L703.2,192.3z"/>
		<path class="st5" d="M804.3,115.1h-26.4v-9.5h64.2v9.5h-26.5v77.2h-11.3V115.1z"/>
	</g>
	<g>
		<path class="st6" d="M182.3,256.7v-30.9H196c2.8,0,4.9,0.3,6.3,0.8c1.4,0.6,2.6,1.5,3.4,2.9c0.9,1.4,1.3,3,1.3,4.7
			c0,2.2-0.7,4-2.1,5.6c-1.4,1.5-3.6,2.5-6.6,2.9c1.1,0.5,1.9,1,2.5,1.5c1.2,1.1,2.3,2.5,3.4,4.1l5.4,8.4h-5.2l-4.1-6.4
			c-1.2-1.9-2.2-3.3-3-4.3s-1.5-1.7-2.1-2.1c-0.6-0.4-1.2-0.7-1.9-0.8c-0.5-0.1-1.2-0.1-2.3-0.1h-4.8v13.7H182.3L182.3,256.7z
			 M186.4,239.4h8.8c1.9,0,3.3-0.2,4.4-0.6s1.9-1,2.4-1.9s0.8-1.8,0.8-2.8c0-1.5-0.5-2.7-1.6-3.6s-2.7-1.4-5-1.4h-9.8L186.4,239.4
			L186.4,239.4z"/>
		<path class="st6" d="M228.3,249.5l3.9,0.5c-0.6,2.3-1.8,4.1-3.4,5.3c-1.7,1.3-3.8,1.9-6.4,1.9c-3.3,0-5.9-1-7.8-3
			c-1.9-2-2.9-4.8-2.9-8.5c0-3.8,1-6.7,2.9-8.8s4.5-3.1,7.6-3.1c3,0,5.4,1,7.3,3.1c1.9,2,2.8,4.9,2.8,8.6c0,0.2,0,0.6,0,1h-16.7
			c0.1,2.5,0.8,4.3,2.1,5.7s2.8,2,4.7,2c1.4,0,2.6-0.4,3.6-1.1C227,252.3,227.7,251.1,228.3,249.5z M215.8,243.4h12.5
			c-0.2-1.9-0.6-3.3-1.4-4.2c-1.2-1.5-2.8-2.2-4.7-2.2c-1.7,0-3.2,0.6-4.4,1.8C216.6,239.8,216,241.4,215.8,243.4z"/>
		<path class="st6" d="M251.6,253.9c-1.4,1.2-2.8,2-4.1,2.5s-2.7,0.7-4.2,0.7c-2.5,0-4.4-0.6-5.7-1.8c-1.3-1.2-2-2.7-2-4.6
			c0-1.1,0.2-2.1,0.7-3s1.2-1.6,2-2.2c0.8-0.5,1.7-1,2.7-1.2c0.7-0.2,1.9-0.4,3.4-0.6c3.1-0.4,5.3-0.8,6.8-1.3c0-0.5,0-0.9,0-1
			c0-1.5-0.4-2.6-1.1-3.3c-1-0.9-2.4-1.3-4.3-1.3c-1.8,0-3.1,0.3-4,0.9s-1.5,1.7-1.9,3.3l-3.7-0.5c0.3-1.6,0.9-2.9,1.7-3.9
			s1.9-1.7,3.4-2.3c1.5-0.5,3.2-0.8,5.1-0.8c1.9,0,3.5,0.2,4.7,0.7s2.1,1,2.6,1.7c0.6,0.7,1,1.5,1.2,2.6c0.1,0.6,0.2,1.8,0.2,3.5
			v5.1c0,3.5,0.1,5.8,0.2,6.7s0.5,1.8,1,2.7h-4C252,255.9,251.7,255,251.6,253.9z M251.3,245.5c-1.4,0.6-3.4,1-6.2,1.4
			c-1.6,0.2-2.7,0.5-3.3,0.8s-1.1,0.7-1.5,1.2s-0.5,1.1-0.5,1.8c0,1,0.4,1.9,1.1,2.5c0.8,0.7,1.9,1,3.4,1s2.8-0.3,3.9-1
			c1.1-0.6,2-1.5,2.5-2.6c0.4-0.9,0.6-2.1,0.6-3.8V245.5z"/>
		<path class="st6" d="M261,256.7v-30.9h3.8v30.9H261z"/>
		<path class="st6" d="M283.2,256.7v-30.9h22.4v3.7h-18.3v9.5h17.1v3.6h-17.1v10.5h19v3.7h-23.1V256.7z"/>
		<path class="st6" d="M310,250l3.8-0.6c0.2,1.5,0.8,2.7,1.8,3.5s2.3,1.2,4,1.2s3-0.4,3.9-1.1c0.8-0.7,1.3-1.5,1.3-2.5
			c0-0.9-0.4-1.5-1.1-2c-0.5-0.3-1.8-0.8-3.9-1.3c-2.8-0.7-4.7-1.3-5.8-1.8s-1.9-1.2-2.4-2.1c-0.6-0.9-0.8-1.9-0.8-3
			c0-1,0.2-1.9,0.7-2.8c0.5-0.9,1.1-1.6,1.9-2.1c0.6-0.4,1.4-0.8,2.4-1.1s2.1-0.5,3.3-0.5c1.8,0,3.3,0.3,4.6,0.8
			c1.3,0.5,2.3,1.2,2.9,2.1s1.1,2,1.3,3.5l-3.7,0.5c-0.2-1.2-0.7-2.1-1.5-2.7s-2-1-3.4-1c-1.7,0-3,0.3-3.7,0.9
			c-0.7,0.6-1.1,1.3-1.1,2c0,0.5,0.2,0.9,0.5,1.3c0.3,0.4,0.8,0.7,1.5,1c0.4,0.1,1.5,0.5,3.4,1c2.7,0.7,4.6,1.3,5.6,1.8
			s1.9,1.1,2.5,2s0.9,2,0.9,3.2c0,1.3-0.4,2.5-1.1,3.6s-1.8,2-3.2,2.6c-1.4,0.6-3,0.9-4.7,0.9c-2.9,0-5.1-0.6-6.7-1.8
			C311.6,254.3,310.4,252.4,310,250z"/>
		<path class="st6" d="M341.4,253.3l0.5,3.4c-1.1,0.2-2,0.3-2.9,0.3c-1.4,0-2.4-0.2-3.2-0.7c-0.8-0.4-1.3-1-1.6-1.7
			c-0.3-0.7-0.5-2.2-0.5-4.5v-12.9H331v-3h2.8v-5.6l3.8-2.3v7.8h3.8v3h-3.8v13.1c0,1.1,0.1,1.8,0.2,2.1s0.4,0.6,0.7,0.7
			s0.7,0.3,1.3,0.3C340.2,253.5,340.7,253.4,341.4,253.3z"/>
		<path class="st6" d="M359.7,253.9c-1.4,1.2-2.8,2-4.1,2.5s-2.7,0.7-4.2,0.7c-2.5,0-4.4-0.6-5.7-1.8c-1.3-1.2-2-2.7-2-4.6
			c0-1.1,0.2-2.1,0.7-3s1.2-1.6,2-2.2c0.8-0.5,1.7-1,2.7-1.2c0.7-0.2,1.9-0.4,3.4-0.6c3.1-0.4,5.3-0.8,6.8-1.3c0-0.5,0-0.9,0-1
			c0-1.5-0.4-2.6-1.1-3.3c-1-0.9-2.4-1.3-4.3-1.3c-1.8,0-3.1,0.3-4,0.9s-1.5,1.7-1.9,3.3l-3.7-0.5c0.3-1.6,0.9-2.9,1.7-3.9
			c0.8-1,1.9-1.7,3.4-2.3c1.5-0.5,3.2-0.8,5.1-0.8s3.5,0.2,4.7,0.7s2.1,1,2.6,1.7c0.6,0.7,1,1.5,1.2,2.6c0.1,0.6,0.2,1.8,0.2,3.5
			v5.1c0,3.5,0.1,5.8,0.2,6.7s0.5,1.8,1,2.7h-4C360.1,255.9,359.8,255,359.7,253.9z M359.4,245.5c-1.4,0.6-3.4,1-6.2,1.4
			c-1.6,0.2-2.7,0.5-3.3,0.8c-0.6,0.3-1.1,0.7-1.5,1.2s-0.5,1.1-0.5,1.8c0,1,0.4,1.9,1.1,2.5c0.8,0.7,1.9,1,3.4,1s2.8-0.3,3.9-1
			c1.1-0.6,2-1.5,2.5-2.6c0.4-0.9,0.6-2.1,0.6-3.8V245.5z"/>
		<path class="st6" d="M377.4,253.3l0.5,3.4c-1.1,0.2-2,0.3-2.9,0.3c-1.4,0-2.4-0.2-3.2-0.7c-0.8-0.4-1.3-1-1.6-1.7
			c-0.3-0.7-0.5-2.2-0.5-4.5v-12.9h-2.8v-3h2.8v-5.6l3.8-2.3v7.8h3.8v3h-3.8v13.1c0,1.1,0.1,1.8,0.2,2.1s0.4,0.6,0.7,0.7
			s0.7,0.3,1.3,0.3C376.2,253.5,376.8,253.4,377.4,253.3z"/>
		<path class="st6" d="M396.5,249.5l3.9,0.5c-0.6,2.3-1.8,4.1-3.4,5.3c-1.7,1.3-3.8,1.9-6.4,1.9c-3.3,0-5.9-1-7.8-3
			c-1.9-2-2.9-4.8-2.9-8.5c0-3.8,1-6.7,2.9-8.8s4.5-3.1,7.6-3.1c3,0,5.4,1,7.3,3.1c1.9,2,2.8,4.9,2.8,8.6c0,0.2,0,0.6,0,1h-16.7
			c0.1,2.5,0.8,4.3,2.1,5.7s2.8,2,4.7,2c1.4,0,2.6-0.4,3.6-1.1C395.1,252.3,395.9,251.1,396.5,249.5z M384,243.4h12.5
			c-0.2-1.9-0.6-3.3-1.4-4.2c-1.2-1.5-2.8-2.2-4.7-2.2c-1.7,0-3.2,0.6-4.4,1.8C384.8,239.8,384.2,241.4,384,243.4z"/>
		<path class="st6" d="M417.6,256.7v-30.9h6.2l7.3,21.9c0.7,2,1.2,3.6,1.5,4.6c0.4-1.1,0.9-2.8,1.6-5l7.4-21.5h5.5v30.9h-3.9v-25.9
			l-9,25.9h-3.7l-8.9-26.3v26.3H417.6z"/>
		<path class="st6" d="M467.8,253.9c-1.4,1.2-2.8,2-4.1,2.5c-1.3,0.5-2.7,0.7-4.2,0.7c-2.5,0-4.4-0.6-5.7-1.8c-1.3-1.2-2-2.7-2-4.6
			c0-1.1,0.2-2.1,0.8-3c0.5-0.9,1.2-1.6,2-2.2c0.8-0.5,1.7-1,2.7-1.2c0.7-0.2,1.9-0.4,3.4-0.6c3.1-0.4,5.3-0.8,6.8-1.3
			c0-0.5,0-0.9,0-1c0-1.5-0.4-2.6-1.1-3.3c-1-0.9-2.4-1.3-4.3-1.3c-1.8,0-3.1,0.3-4,0.9s-1.5,1.7-1.9,3.3l-3.7-0.5
			c0.3-1.6,0.9-2.9,1.7-3.9s1.9-1.7,3.4-2.3c1.5-0.5,3.2-0.8,5.1-0.8s3.5,0.2,4.7,0.7s2.1,1,2.6,1.7c0.6,0.7,1,1.5,1.2,2.6
			c0.1,0.6,0.2,1.8,0.2,3.5v5.1c0,3.5,0.1,5.8,0.2,6.7c0.2,0.9,0.5,1.8,1,2.7h-4C468.2,255.9,467.9,255,467.8,253.9z M467.5,245.5
			c-1.4,0.6-3.4,1-6.2,1.4c-1.6,0.2-2.7,0.5-3.3,0.8c-0.6,0.3-1.1,0.7-1.5,1.2s-0.5,1.1-0.5,1.8c0,1,0.4,1.9,1.2,2.5
			c0.8,0.7,1.9,1,3.4,1s2.8-0.3,3.9-1c1.1-0.6,2-1.5,2.5-2.6c0.4-0.9,0.6-2.1,0.6-3.8v-1.3H467.5z"/>
		<path class="st6" d="M477.2,256.7v-22.4h3.4v3.2c1.6-2.5,4-3.7,7.1-3.7c1.3,0,2.6,0.2,3.7,0.7s2,1.1,2.5,1.9s1,1.7,1.2,2.8
			c0.1,0.7,0.2,1.9,0.2,3.7v13.8h-3.8v-13.6c0-1.5-0.1-2.7-0.4-3.5s-0.8-1.4-1.6-1.8c-0.8-0.5-1.6-0.7-2.6-0.7c-1.6,0-3,0.5-4.2,1.5
			s-1.8,3-1.8,5.8v12.2L477.2,256.7L477.2,256.7z"/>
		<path class="st6" d="M515.9,253.9c-1.4,1.2-2.8,2-4.1,2.5c-1.3,0.5-2.7,0.7-4.2,0.7c-2.5,0-4.4-0.6-5.7-1.8c-1.3-1.2-2-2.7-2-4.6
			c0-1.1,0.2-2.1,0.8-3c0.5-0.9,1.2-1.6,2-2.2c0.8-0.5,1.7-1,2.7-1.2c0.7-0.2,1.9-0.4,3.4-0.6c3.1-0.4,5.3-0.8,6.8-1.3
			c0-0.5,0-0.9,0-1c0-1.5-0.4-2.6-1.1-3.3c-1-0.9-2.4-1.3-4.3-1.3c-1.8,0-3.1,0.3-4,0.9s-1.5,1.7-1.9,3.3l-3.7-0.5
			c0.3-1.6,0.9-2.9,1.7-3.9s1.9-1.7,3.4-2.3c1.5-0.5,3.2-0.8,5.1-0.8s3.5,0.2,4.7,0.7c1.2,0.5,2.1,1,2.6,1.7c0.6,0.7,1,1.5,1.2,2.6
			c0.1,0.6,0.2,1.8,0.2,3.5v5.1c0,3.5,0.1,5.8,0.2,6.7c0.2,0.9,0.5,1.8,1,2.7h-4C516.3,255.9,516,255,515.9,253.9z M515.6,245.5
			c-1.4,0.6-3.4,1-6.2,1.4c-1.6,0.2-2.7,0.5-3.3,0.8c-0.6,0.3-1.1,0.7-1.5,1.2s-0.5,1.1-0.5,1.8c0,1,0.4,1.9,1.2,2.5
			c0.8,0.7,1.9,1,3.4,1s2.8-0.3,3.9-1c1.1-0.6,2-1.5,2.5-2.6c0.4-0.9,0.6-2.1,0.6-3.8L515.6,245.5L515.6,245.5z"/>
		<path class="st6" d="M524.6,258.6l3.7,0.5c0.2,1.1,0.6,2,1.3,2.5c0.9,0.7,2.2,1.1,3.9,1.1c1.8,0,3.1-0.4,4.1-1.1s1.6-1.7,1.9-3
			c0.2-0.8,0.3-2.4,0.3-4.9c-1.7,2-3.7,2.9-6.2,2.9c-3.1,0-5.5-1.1-7.2-3.3s-2.5-4.9-2.5-8c0-2.1,0.4-4.1,1.2-5.9s1.9-3.2,3.4-4.2
			s3.2-1.5,5.2-1.5c2.6,0,4.8,1.1,6.5,3.2v-2.7h3.5v19.4c0,3.5-0.4,6-1.1,7.4c-0.7,1.5-1.8,2.6-3.4,3.5c-1.5,0.8-3.4,1.3-5.7,1.3
			c-2.7,0-4.8-0.6-6.5-1.8S524.6,261,524.6,258.6z M527.8,245.1c0,2.9,0.6,5.1,1.8,6.4s2.6,2,4.4,2c1.7,0,3.2-0.7,4.4-2
			s1.8-3.5,1.8-6.3c0-2.7-0.6-4.8-1.8-6.2s-2.7-2.1-4.4-2.1s-3.1,0.7-4.3,2.1C528.4,240.4,527.8,242.4,527.8,245.1z"/>
		<path class="st6" d="M564.7,249.5l3.9,0.5c-0.6,2.3-1.8,4.1-3.4,5.3c-1.7,1.3-3.8,1.9-6.4,1.9c-3.3,0-5.9-1-7.8-3
			c-1.9-2-2.9-4.8-2.9-8.5c0-3.8,1-6.7,2.9-8.8s4.5-3.1,7.6-3.1c3,0,5.4,1,7.3,3.1c1.9,2,2.8,4.9,2.8,8.6c0,0.2,0,0.6,0,1H552
			c0.1,2.5,0.8,4.3,2.1,5.7s2.8,2,4.7,2c1.4,0,2.6-0.4,3.6-1.1C563.3,252.3,564.1,251.1,564.7,249.5z M552.2,243.4h12.5
			c-0.2-1.9-0.6-3.3-1.4-4.2c-1.2-1.5-2.8-2.2-4.7-2.2c-1.7,0-3.2,0.6-4.4,1.8C553,239.8,552.4,241.4,552.2,243.4z"/>
		<path class="st6" d="M573.4,256.7v-22.4h3.4v3.1c0.7-1.1,1.6-2,2.8-2.6s2.5-1,4-1c1.7,0,3,0.3,4.1,1s1.8,1.7,2.2,2.9
			c1.8-2.6,4.1-3.9,6.9-3.9c2.2,0,3.9,0.6,5.1,1.8c1.2,1.2,1.8,3.1,1.8,5.7v15.4H600v-14.1c0-1.5-0.1-2.6-0.4-3.3
			c-0.2-0.7-0.7-1.2-1.3-1.6c-0.6-0.4-1.4-0.6-2.3-0.6c-1.6,0-2.9,0.5-3.9,1.6c-1,1-1.6,2.7-1.6,5v13h-3.8v-14.6
			c0-1.7-0.3-3-0.9-3.8c-0.6-0.8-1.6-1.3-3-1.3c-1.1,0-2.1,0.3-3,0.8c-0.9,0.6-1.6,1.4-2,2.5s-0.6,2.6-0.6,4.7v11.6h-3.8V256.7z"/>
		<path class="st6" d="M624.7,249.5l3.9,0.5c-0.6,2.3-1.8,4.1-3.4,5.3c-1.7,1.3-3.8,1.9-6.4,1.9c-3.3,0-5.9-1-7.8-3
			c-1.9-2-2.9-4.8-2.9-8.5c0-3.8,1-6.7,2.9-8.8s4.5-3.1,7.6-3.1c3,0,5.4,1,7.3,3.1c1.9,2,2.8,4.9,2.8,8.6c0,0.2,0,0.6,0,1H612
			c0.1,2.5,0.8,4.3,2.1,5.7s2.8,2,4.7,2c1.4,0,2.6-0.4,3.6-1.1C623.4,252.3,624.2,251.1,624.7,249.5z M612.3,243.4h12.5
			c-0.2-1.9-0.6-3.3-1.4-4.2c-1.2-1.5-2.8-2.2-4.7-2.2c-1.7,0-3.2,0.6-4.4,1.8C613.1,239.8,612.4,241.4,612.3,243.4z"/>
		<path class="st6" d="M633.4,256.7v-22.4h3.4v3.2c1.6-2.5,4-3.7,7.1-3.7c1.4,0,2.6,0.2,3.7,0.7c1.1,0.5,2,1.1,2.5,1.9
			c0.6,0.8,1,1.7,1.2,2.8c0.1,0.7,0.2,1.9,0.2,3.7v13.8h-3.8v-13.6c0-1.5-0.1-2.7-0.4-3.5s-0.8-1.4-1.6-1.8
			c-0.8-0.5-1.6-0.7-2.6-0.7c-1.6,0-3,0.5-4.2,1.5s-1.8,3-1.8,5.8v12.2L633.4,256.7L633.4,256.7z"/>
		<path class="st6" d="M665.8,253.3l0.5,3.4c-1.1,0.2-2,0.3-2.9,0.3c-1.4,0-2.4-0.2-3.2-0.7c-0.8-0.4-1.3-1-1.6-1.7
			s-0.5-2.2-0.5-4.5v-12.9h-2.8v-3h2.8v-5.6l3.8-2.3v7.8h3.8v3H662v13.1c0,1.1,0.1,1.8,0.2,2.1c0.1,0.3,0.4,0.6,0.7,0.7
			s0.7,0.3,1.3,0.3C664.5,253.5,665.1,253.4,665.8,253.3z"/>
		<path class="st6" d="M680.6,246.8l3.9-0.3c0.2,1.5,0.6,2.8,1.3,3.8s1.7,1.8,3.1,2.4c1.4,0.6,3,0.9,4.8,0.9c1.6,0,2.9-0.2,4.1-0.7
			c1.2-0.5,2.1-1.1,2.7-1.9c0.6-0.8,0.9-1.7,0.9-2.6c0-1-0.3-1.8-0.8-2.5c-0.6-0.7-1.5-1.3-2.8-1.8c-0.8-0.3-2.7-0.8-5.5-1.5
			s-4.8-1.3-6-1.9c-1.5-0.8-2.6-1.7-3.3-2.9c-0.7-1.1-1.1-2.4-1.1-3.9c0-1.6,0.4-3,1.3-4.4c0.9-1.4,2.2-2.4,3.9-3.1
			c1.7-0.7,3.6-1.1,5.7-1.1c2.3,0,4.3,0.4,6.1,1.1c1.8,0.7,3.1,1.8,4,3.3s1.4,3.1,1.5,4.9l-3.9,0.3c-0.2-2-0.9-3.4-2.1-4.4
			c-1.2-1-3-1.5-5.4-1.5c-2.5,0-4.3,0.5-5.4,1.4s-1.7,2-1.7,3.3c0,1.1,0.4,2,1.2,2.7s2.8,1.5,6.2,2.2c3.3,0.8,5.6,1.4,6.8,2
			c1.8,0.8,3.1,1.9,4,3.2s1.3,2.7,1.3,4.4c0,1.6-0.5,3.2-1.4,4.7s-2.3,2.6-4.1,3.4c-1.8,0.8-3.8,1.2-6,1.2c-2.8,0-5.1-0.4-7-1.2
			c-1.9-0.8-3.4-2-4.5-3.7C681.2,250.7,680.6,248.8,680.6,246.8z"/>
		<path class="st6" d="M725.7,249.5l3.9,0.5c-0.6,2.3-1.8,4.1-3.4,5.3c-1.7,1.3-3.8,1.9-6.4,1.9c-3.3,0-5.9-1-7.8-3
			c-1.9-2-2.9-4.8-2.9-8.5c0-3.8,1-6.7,2.9-8.8s4.5-3.1,7.6-3.1c3,0,5.4,1,7.3,3.1c1.9,2,2.8,4.9,2.8,8.6c0,0.2,0,0.6,0,1H713
			c0.1,2.5,0.8,4.3,2.1,5.7s2.8,2,4.7,2c1.4,0,2.6-0.4,3.6-1.1C724.3,252.3,725.1,251.1,725.7,249.5z M713.2,243.4h12.5
			c-0.2-1.9-0.6-3.3-1.4-4.2c-1.2-1.5-2.8-2.2-4.7-2.2c-1.7,0-3.2,0.6-4.4,1.8C714,239.8,713.3,241.4,713.2,243.4z"/>
		<path class="st6" d="M734.3,256.7v-22.4h3.4v3.4c0.9-1.6,1.7-2.6,2.4-3.1s1.6-0.8,2.4-0.8c1.3,0,2.6,0.4,3.9,1.2l-1.3,3.5
			c-0.9-0.5-1.9-0.8-2.8-0.8c-0.8,0-1.6,0.2-2.2,0.7c-0.7,0.5-1.1,1.2-1.4,2.1c-0.4,1.4-0.6,2.8-0.6,4.4v11.7h-3.8V256.7z"/>
		<path class="st6" d="M755,256.7l-8.5-22.4h4l4.8,13.4c0.5,1.4,1,3,1.4,4.5c0.3-1.2,0.8-2.6,1.4-4.3l5-13.7h3.9l-8.5,22.4
			L755,256.7L755,256.7z"/>
		<path class="st6" d="M770.4,230.1v-4.4h3.8v4.4H770.4z M770.4,256.7v-22.4h3.8v22.4H770.4z"/>
		<path class="st6" d="M794.6,248.5l3.7,0.5c-0.4,2.6-1.5,4.6-3.1,6s-3.7,2.2-6.2,2.2c-3.1,0-5.5-1-7.4-3c-1.9-2-2.8-4.9-2.8-8.6
			c0-2.4,0.4-4.5,1.2-6.4c0.8-1.8,2-3.2,3.7-4.1c1.6-0.9,3.4-1.4,5.4-1.4c2.4,0,4.4,0.6,6,1.8c1.5,1.2,2.5,3,3,5.2l-3.7,0.6
			c-0.4-1.5-1-2.6-1.9-3.4c-0.9-0.8-2-1.1-3.2-1.1c-1.9,0-3.5,0.7-4.7,2.1c-1.2,1.4-1.8,3.5-1.8,6.5s0.6,5.2,1.7,6.6
			c1.2,1.4,2.7,2,4.5,2c1.5,0,2.7-0.5,3.7-1.4C793.7,251.8,794.3,250.4,794.6,248.5z"/>
		<path class="st6" d="M816.9,249.5l3.9,0.5c-0.6,2.3-1.8,4.1-3.4,5.3c-1.7,1.3-3.8,1.9-6.4,1.9c-3.3,0-5.9-1-7.8-3
			c-1.9-2-2.9-4.8-2.9-8.5c0-3.8,1-6.7,2.9-8.8s4.5-3.1,7.6-3.1c3,0,5.4,1,7.3,3.1c1.9,2,2.8,4.9,2.8,8.6c0,0.2,0,0.6,0,1h-16.7
			c0.1,2.5,0.8,4.3,2.1,5.7s2.8,2,4.7,2c1.4,0,2.6-0.4,3.6-1.1C815.6,252.3,816.4,251.1,816.9,249.5z M804.5,243.4H817
			c-0.2-1.9-0.6-3.3-1.4-4.2c-1.2-1.5-2.8-2.2-4.7-2.2c-1.7,0-3.2,0.6-4.4,1.8C805.2,239.8,804.6,241.4,804.5,243.4z"/>
		<path class="st6" d="M824.1,250l3.8-0.6c0.2,1.5,0.8,2.7,1.8,3.5s2.3,1.2,4,1.2s3-0.4,3.9-1.1s1.3-1.5,1.3-2.5
			c0-0.9-0.4-1.5-1.1-2c-0.5-0.3-1.8-0.8-3.9-1.3c-2.8-0.7-4.7-1.3-5.8-1.8s-1.9-1.2-2.4-2.1c-0.6-0.9-0.8-1.9-0.8-3
			c0-1,0.2-1.9,0.7-2.8c0.5-0.9,1.1-1.6,1.9-2.1c0.6-0.4,1.4-0.8,2.4-1.1s2.1-0.5,3.3-0.5c1.8,0,3.3,0.3,4.6,0.8s2.3,1.2,2.9,2.1
			c0.6,0.9,1.1,2,1.3,3.5l-3.7,0.5c-0.2-1.2-0.7-2.1-1.5-2.7c-0.8-0.6-2-1-3.4-1c-1.7,0-3,0.3-3.7,0.9s-1.1,1.3-1.1,2
			c0,0.5,0.2,0.9,0.5,1.3c0.3,0.4,0.8,0.7,1.5,1c0.4,0.1,1.5,0.5,3.4,1c2.7,0.7,4.6,1.3,5.6,1.8s1.9,1.1,2.5,2s0.9,2,0.9,3.2
			c0,1.3-0.4,2.5-1.1,3.6c-0.7,1.1-1.8,2-3.2,2.6c-1.4,0.6-3,0.9-4.7,0.9c-2.9,0-5.1-0.6-6.7-1.8C825.5,254.2,824.5,252.4,824.1,250
			z"/>
	</g>
	<g>
		<path class="st6" d="M438.2,373.3l4.8-22.9h3l-4.8,22.9H438.2z"/>
		<path class="st6" d="M446.3,373.3l3.5-16.6h2.6l-0.6,2.9c1.1-1.1,2.2-2,3.1-2.5c1-0.5,2-0.8,3-0.8c1.3,0,2.4,0.4,3.2,1.1
			c0.8,0.7,1.1,1.7,1.1,2.9c0,0.6-0.1,1.6-0.4,2.9l-2.1,10h-2.8l2.2-10.5c0.2-1,0.3-1.8,0.3-2.3c0-0.6-0.2-1-0.6-1.3
			s-0.9-0.5-1.6-0.5c-1.4,0-2.7,0.5-3.9,1.6c-1.1,1-2,2.8-2.5,5.4l-1.6,7.7L446.3,373.3L446.3,373.3z"/>
		<path class="st6" d="M470.7,371l-0.5,2.3c-0.7,0.2-1.3,0.3-2,0.3c-1.1,0-2-0.3-2.7-0.8c-0.5-0.4-0.8-1-0.8-1.7
			c0-0.4,0.1-1.2,0.4-2.5l2-9.6H465l0.5-2.2h2.2l0.9-4.1l3.2-2l-1.3,6h2.8l-0.5,2.2H470l-1.9,9.2c-0.2,1.2-0.4,1.9-0.4,2.1
			c0,0.3,0.1,0.6,0.3,0.8c0.2,0.2,0.5,0.3,0.9,0.3C469.7,371.1,470.2,371.1,470.7,371z"/>
		<path class="st6" d="M485.2,367.6l2.8,0.3c-0.4,1.4-1.3,2.7-2.7,3.9c-1.4,1.2-3.1,1.8-5.1,1.8c-1.2,0-2.4-0.3-3.4-0.9
			s-1.8-1.4-2.3-2.5s-0.8-2.3-0.8-3.7c0-1.8,0.4-3.6,1.3-5.3c0.8-1.7,1.9-3,3.3-3.8c1.3-0.8,2.8-1.2,4.3-1.2c2,0,3.6,0.6,4.7,1.8
			c1.2,1.2,1.8,2.9,1.8,5c0,0.8-0.1,1.6-0.2,2.5h-12.2c0,0.3-0.1,0.6-0.1,0.9c0,1.6,0.4,2.7,1.1,3.6c0.7,0.8,1.6,1.2,2.6,1.2
			s1.9-0.3,2.9-1C483.9,369.7,484.7,368.8,485.2,367.6z M477,363.5h9.3c0-0.3,0-0.5,0-0.6c0-1.4-0.4-2.5-1.1-3.3s-1.6-1.1-2.7-1.1
			c-1.2,0-2.3,0.4-3.3,1.2C478.2,360.6,477.5,361.8,477,363.5z"/>
		<path class="st6" d="M490.6,374.8l2.9,0.3c0,0.6,0.1,1.1,0.2,1.5c0.2,0.3,0.5,0.6,0.8,0.8c0.5,0.2,1.2,0.3,2,0.3
			c1.7,0,2.9-0.4,3.7-1.3c0.5-0.6,0.9-1.9,1.4-3.9l0.3-1.3c-1.5,1.5-3,2.2-4.7,2.2s-3.1-0.6-4.2-1.9c-1.1-1.2-1.7-3-1.7-5.2
			c0-1.9,0.4-3.6,1.3-5.1s2-2.7,3.2-3.5s2.5-1.2,3.8-1.2c2.2,0,3.9,1,5,3.1l0.6-2.7h2.6l-3.3,16c-0.4,1.8-0.8,3.1-1.4,4.1
			s-1.4,1.7-2.5,2.3c-1.1,0.5-2.3,0.8-3.7,0.8c-1.3,0-2.5-0.2-3.4-0.5c-1-0.3-1.7-0.8-2.2-1.5s-0.7-1.4-0.7-2.3
			C490.6,375.3,490.6,375.1,490.6,374.8z M494.2,365.9c0,1.1,0.1,2,0.3,2.6c0.3,0.8,0.8,1.4,1.3,1.8s1.2,0.6,1.9,0.6
			c0.9,0,1.8-0.3,2.8-1c0.9-0.7,1.7-1.7,2.2-3c0.6-1.4,0.9-2.7,0.9-3.9c0-1.4-0.4-2.5-1.1-3.3c-0.8-0.8-1.7-1.2-2.8-1.2
			c-0.7,0-1.4,0.2-2,0.6s-1.2,0.9-1.8,1.7c-0.6,0.8-1,1.7-1.3,2.7C494.3,364.6,494.2,365.4,494.2,365.9z"/>
		<path class="st6" d="M508.6,373.3l3.5-16.6h2.5l-0.7,3.4c0.9-1.3,1.7-2.2,2.5-2.8c0.8-0.6,1.7-0.9,2.5-0.9c0.6,0,1.3,0.2,2.1,0.6
			l-1.2,2.6c-0.5-0.4-1-0.5-1.6-0.5c-1,0-2,0.6-3,1.7s-1.9,3.1-2.5,6l-1.4,6.7h-2.7V373.3z"/>
		<path class="st6" d="M519.1,373.3l3.5-16.6h2.8l-3.5,16.6H519.1z M523.3,353.6l0.7-3.2h2.8l-0.7,3.2H523.3z"/>
		<path class="st6" d="M533,371l-0.5,2.3c-0.7,0.2-1.3,0.3-2,0.3c-1.1,0-2-0.3-2.7-0.8c-0.5-0.4-0.8-1-0.8-1.7
			c0-0.4,0.1-1.2,0.4-2.5l2-9.6h-2.2l0.5-2.2h2.2l0.9-4.1l3.2-2l-1.3,6h2.8l-0.5,2.2h-2.8l-1.9,9.2c-0.2,1.2-0.4,1.9-0.4,2.1
			c0,0.3,0.1,0.6,0.3,0.8c0.2,0.2,0.5,0.3,0.9,0.3C531.9,371.1,532.5,371.1,533,371z"/>
		<path class="st6" d="M534.2,379.7l0.2-2.7c0.6,0.2,1.2,0.2,1.7,0.2c0.6,0,1-0.1,1.4-0.4c0.5-0.3,1-1,1.5-1.9l0.9-1.6l-2.8-16.6
			h2.8l1.2,8.4c0.2,1.7,0.5,3.3,0.6,5l7.4-13.4h3l-10.6,18.8c-1,1.8-1.9,3-2.7,3.6s-1.7,0.9-2.7,0.9
			C535.4,380,534.8,379.9,534.2,379.7z"/>
		<path class="st6" d="M549.5,373.3l0.7-3.2h3.2l-0.6,2.8c-0.4,1.7-0.9,2.9-1.6,3.7c-0.7,0.8-1.6,1.2-2.6,1.3l0.3-1.2
			c1.2-0.3,2.1-1.5,2.5-3.4L549.5,373.3L549.5,373.3z"/>
		<path class="st6" d="M567.4,373.3l4.8-22.9h3l-4.8,22.9H567.4z"/>
		<path class="st6" d="M575.5,373.3l3.5-16.6h2.6l-0.6,2.9c1.1-1.1,2.2-2,3.1-2.5c1-0.5,2-0.8,3-0.8c1.3,0,2.4,0.4,3.2,1.1
			s1.1,1.7,1.1,2.9c0,0.6-0.1,1.6-0.4,2.9l-2.1,10H586l2.2-10.5c0.2-1,0.3-1.8,0.3-2.3c0-0.6-0.2-1-0.6-1.3
			c-0.4-0.3-0.9-0.5-1.6-0.5c-1.4,0-2.7,0.5-3.9,1.6c-1.1,1-2,2.8-2.5,5.4l-1.6,7.7L575.5,373.3L575.5,373.3z"/>
		<path class="st6" d="M599.9,371l-0.5,2.3c-0.7,0.2-1.3,0.3-2,0.3c-1.1,0-2-0.3-2.7-0.8c-0.5-0.4-0.8-1-0.8-1.7
			c0-0.4,0.1-1.2,0.4-2.5l2-9.6h-2.2l0.5-2.2h2.2l0.9-4.1l3.2-2l-1.3,6h2.8l-0.5,2.2h-2.8l-1.9,9.2c-0.2,1.2-0.4,1.9-0.4,2.1
			c0,0.3,0.1,0.6,0.3,0.8c0.2,0.2,0.5,0.3,0.9,0.3C598.9,371.1,599.5,371.1,599.9,371z"/>
		<path class="st6" d="M614.4,367.6l2.8,0.3c-0.4,1.4-1.3,2.7-2.7,3.9c-1.4,1.2-3.1,1.8-5.1,1.8c-1.2,0-2.4-0.3-3.4-0.9
			s-1.8-1.4-2.3-2.5s-0.8-2.3-0.8-3.7c0-1.8,0.4-3.6,1.3-5.3c0.8-1.7,1.9-3,3.3-3.8c1.3-0.8,2.8-1.2,4.3-1.2c2,0,3.6,0.6,4.7,1.8
			c1.2,1.2,1.8,2.9,1.8,5c0,0.8-0.1,1.6-0.2,2.5h-12.2c0,0.3-0.1,0.6-0.1,0.9c0,1.6,0.4,2.7,1.1,3.6c0.7,0.8,1.6,1.2,2.6,1.2
			s1.9-0.3,2.9-1C613.2,369.7,613.9,368.8,614.4,367.6z M606.2,363.5h9.3c0-0.3,0-0.5,0-0.6c0-1.4-0.4-2.5-1.1-3.3
			c-0.7-0.8-1.6-1.1-2.7-1.1c-1.2,0-2.3,0.4-3.3,1.2C607.4,360.6,606.7,361.8,606.2,363.5z"/>
		<path class="st6" d="M619.8,373.3l4.8-22.9h2.8l-4.8,22.9H619.8z"/>
		<path class="st6" d="M626.9,373.3l4.8-22.9h2.8l-4.8,22.9H626.9z"/>
		<path class="st6" d="M634.1,373.3l3.5-16.6h2.8l-3.5,16.6H634.1z M638.3,353.6l0.7-3.2h2.8l-0.7,3.2H638.3z"/>
		<path class="st6" d="M641.2,374.8l2.9,0.3c0,0.6,0.1,1.1,0.2,1.5c0.2,0.3,0.5,0.6,0.8,0.8c0.5,0.2,1.2,0.3,2,0.3
			c1.7,0,2.9-0.4,3.7-1.3c0.5-0.6,0.9-1.9,1.4-3.9l0.3-1.3c-1.5,1.5-3,2.2-4.7,2.2s-3.1-0.6-4.2-1.9c-1.1-1.2-1.7-3-1.7-5.2
			c0-1.9,0.4-3.6,1.3-5.1s2-2.7,3.2-3.5s2.5-1.2,3.8-1.2c2.2,0,3.9,1,5,3.1l0.6-2.7h2.6l-3.3,16c-0.4,1.8-0.8,3.1-1.4,4.1
			s-1.4,1.7-2.5,2.3c-1.1,0.5-2.3,0.8-3.7,0.8c-1.3,0-2.5-0.2-3.4-0.5c-1-0.3-1.7-0.8-2.2-1.5s-0.7-1.4-0.7-2.3
			C641.1,375.3,641.1,375.1,641.2,374.8z M644.7,365.9c0,1.1,0.1,2,0.3,2.6c0.3,0.8,0.8,1.4,1.3,1.8s1.2,0.6,1.9,0.6
			c0.9,0,1.8-0.3,2.8-1c0.9-0.7,1.7-1.7,2.2-3c0.6-1.4,0.9-2.7,0.9-3.9c0-1.4-0.4-2.5-1.1-3.3c-0.8-0.8-1.7-1.2-2.8-1.2
			c-0.7,0-1.4,0.2-2,0.6s-1.2,0.9-1.8,1.7c-0.6,0.8-1,1.7-1.3,2.7C644.9,364.6,644.7,365.4,644.7,365.9z"/>
		<path class="st6" d="M671.3,367.6l2.8,0.3c-0.4,1.4-1.3,2.7-2.7,3.9c-1.4,1.2-3.1,1.8-5.1,1.8c-1.2,0-2.4-0.3-3.4-0.9
			s-1.8-1.4-2.3-2.5s-0.8-2.3-0.8-3.7c0-1.8,0.4-3.6,1.3-5.3c0.8-1.7,1.9-3,3.3-3.8c1.3-0.8,2.8-1.2,4.3-1.2c2,0,3.6,0.6,4.7,1.8
			c1.2,1.2,1.8,2.9,1.8,5c0,0.8-0.1,1.6-0.2,2.5h-12.2c0,0.3-0.1,0.6-0.1,0.9c0,1.6,0.4,2.7,1.1,3.6c0.7,0.8,1.6,1.2,2.6,1.2
			s1.9-0.3,2.9-1C670.1,369.7,670.8,368.8,671.3,367.6z M663.1,363.5h9.3c0-0.3,0-0.5,0-0.6c0-1.4-0.4-2.5-1.1-3.3
			c-0.7-0.8-1.6-1.1-2.7-1.1c-1.2,0-2.3,0.4-3.3,1.2C664.4,360.6,663.6,361.8,663.1,363.5z"/>
		<path class="st6" d="M676.9,373.3l3.5-16.6h2.6l-0.6,2.9c1.1-1.1,2.2-2,3.1-2.5c1-0.5,2-0.8,3-0.8c1.3,0,2.4,0.4,3.2,1.1
			s1.1,1.7,1.1,2.9c0,0.6-0.1,1.6-0.4,2.9l-2.1,10h-2.8l2.2-10.5c0.2-1,0.3-1.8,0.3-2.3c0-0.6-0.2-1-0.6-1.3
			c-0.4-0.3-0.9-0.5-1.6-0.5c-1.4,0-2.7,0.5-3.9,1.6c-1.1,1-2,2.8-2.5,5.4l-1.6,7.7L676.9,373.3L676.9,373.3z"/>
		<path class="st6" d="M706.2,367.2l2.8,0.3c-0.7,2.1-1.7,3.6-3,4.6s-2.8,1.5-4.5,1.5c-1.8,0-3.3-0.6-4.4-1.8
			c-1.1-1.2-1.7-2.8-1.7-4.9c0-1.8,0.4-3.6,1.1-5.3s1.7-3.1,3.1-4c1.3-0.9,2.9-1.4,4.6-1.4c1.8,0,3.2,0.5,4.2,1.5s1.6,2.3,1.6,4
			l-2.8,0.2c0-1.1-0.3-1.9-0.9-2.5c-0.6-0.6-1.4-0.9-2.4-0.9c-1.1,0-2.1,0.4-3,1.1c-0.8,0.7-1.5,1.8-2,3.3s-0.7,2.9-0.7,4.2
			c0,1.4,0.3,2.5,0.9,3.2c0.6,0.7,1.4,1.1,2.3,1.1c0.9,0,1.8-0.3,2.6-1C705.1,369.7,705.7,368.6,706.2,367.2z"/>
		<path class="st6" d="M722.9,367.6l2.8,0.3c-0.4,1.4-1.3,2.7-2.7,3.9c-1.4,1.2-3.1,1.8-5.1,1.8c-1.2,0-2.4-0.3-3.4-0.9
			s-1.8-1.4-2.3-2.5s-0.8-2.3-0.8-3.7c0-1.8,0.4-3.6,1.3-5.3c0.8-1.7,1.9-3,3.3-3.8c1.3-0.8,2.8-1.2,4.3-1.2c2,0,3.6,0.6,4.7,1.8
			c1.2,1.2,1.8,2.9,1.8,5c0,0.8-0.1,1.6-0.2,2.5h-12.2c0,0.3-0.1,0.6-0.1,0.9c0,1.6,0.4,2.7,1.1,3.6c0.7,0.8,1.6,1.2,2.6,1.2
			s1.9-0.3,2.9-1C721.7,369.7,722.4,368.8,722.9,367.6z M714.7,363.5h9.3c0-0.3,0-0.5,0-0.6c0-1.4-0.4-2.5-1.1-3.3
			c-0.7-0.8-1.6-1.1-2.7-1.1c-1.2,0-2.3,0.4-3.3,1.2C715.9,360.6,715.2,361.8,714.7,363.5z"/>
		<path class="st6" d="M729.2,373.3l0.7-3.2h3.2l-0.6,2.8c-0.4,1.7-0.9,2.9-1.6,3.7c-0.7,0.8-1.6,1.2-2.6,1.3l0.3-1.2
			c1.2-0.3,2.1-1.5,2.5-3.4L729.2,373.3L729.2,373.3z"/>
		<path class="st6" d="M747.1,373.3l4.8-22.9h3l-4.8,22.9H747.1z"/>
		<path class="st6" d="M755.2,373.3l3.5-16.6h2.6l-0.6,2.9c1.1-1.1,2.2-2,3.1-2.5c1-0.5,2-0.8,3-0.8c1.3,0,2.4,0.4,3.2,1.1
			s1.1,1.7,1.1,2.9c0,0.6-0.1,1.6-0.4,2.9l-2.1,10h-2.8l2.2-10.5c0.2-1,0.3-1.8,0.3-2.3c0-0.6-0.2-1-0.6-1.3
			c-0.4-0.3-0.9-0.5-1.6-0.5c-1.4,0-2.7,0.5-3.9,1.6c-1.1,1-2,2.8-2.5,5.4l-1.6,7.7L755.2,373.3L755.2,373.3z"/>
		<path class="st6" d="M773.3,367.6l2.8-0.2c0,0.8,0.1,1.5,0.4,2.1c0.2,0.6,0.7,1,1.4,1.4s1.5,0.5,2.4,0.5c1.2,0,2.2-0.2,2.8-0.8
			s0.9-1.1,0.9-1.8c0-0.5-0.2-1-0.6-1.4c-0.4-0.4-1.3-1-2.8-1.6s-2.5-1.1-2.9-1.4c-0.7-0.4-1.2-0.9-1.6-1.5c-0.4-0.6-0.5-1.2-0.5-2
			c0-1.3,0.5-2.4,1.6-3.4c1-0.9,2.5-1.4,4.4-1.4c2.1,0,3.7,0.5,4.8,1.4c1.1,1,1.7,2.2,1.7,3.8l-2.8,0.2c0-1-0.4-1.8-1.1-2.4
			c-0.7-0.6-1.6-0.9-2.8-0.9c-1,0-1.7,0.2-2.3,0.7c-0.5,0.4-0.8,0.9-0.8,1.5c0,0.5,0.2,1,0.7,1.4c0.3,0.3,1.1,0.7,2.4,1.2
			c2.2,0.9,3.5,1.7,4.1,2.2c0.9,0.9,1.3,1.9,1.3,3.2c0,0.8-0.3,1.6-0.8,2.4s-1.3,1.4-2.3,1.9s-2.3,0.7-3.7,0.7
			c-1.9,0-3.5-0.5-4.9-1.4C773.8,371.3,773.2,369.7,773.3,367.6z"/>
		<path class="st6" d="M788.9,373.3l3.5-16.6h2.8l-3.5,16.6H788.9z M793,353.6l0.7-3.2h2.8l-0.7,3.2H793z"/>
		<path class="st6" d="M796,374.8l2.9,0.3c0,0.6,0.1,1.1,0.2,1.5c0.2,0.3,0.5,0.6,0.8,0.8c0.5,0.2,1.2,0.3,2,0.3
			c1.7,0,2.9-0.4,3.7-1.3c0.5-0.6,0.9-1.9,1.4-3.9l0.3-1.3c-1.5,1.5-3,2.2-4.7,2.2s-3.1-0.6-4.2-1.9c-1.1-1.2-1.7-3-1.7-5.2
			c0-1.9,0.4-3.6,1.3-5.1s2-2.7,3.2-3.5s2.5-1.2,3.8-1.2c2.2,0,3.9,1,5,3.1l0.6-2.7h2.6l-3.3,16c-0.4,1.8-0.8,3.1-1.4,4.1
			s-1.4,1.7-2.5,2.3c-1.1,0.5-2.3,0.8-3.7,0.8c-1.3,0-2.5-0.2-3.4-0.5c-1-0.3-1.7-0.8-2.2-1.5s-0.7-1.4-0.7-2.3
			C795.9,375.3,795.9,375.1,796,374.8z M799.5,365.9c0,1.1,0.1,2,0.3,2.6c0.3,0.8,0.8,1.4,1.3,1.8s1.2,0.6,1.9,0.6
			c0.9,0,1.8-0.3,2.8-1c0.9-0.7,1.7-1.7,2.2-3c0.6-1.4,0.9-2.7,0.9-3.9c0-1.4-0.4-2.5-1.1-3.3c-0.8-0.8-1.7-1.2-2.8-1.2
			c-0.7,0-1.4,0.2-2,0.6s-1.2,0.9-1.8,1.7c-0.6,0.8-1,1.7-1.3,2.7C799.6,364.6,799.5,365.4,799.5,365.9z"/>
		<path class="st6" d="M813.9,373.3l4.8-22.9h2.8l-1.8,8.8c1.1-1,2-1.8,2.9-2.2c0.9-0.4,1.8-0.7,2.8-0.7c1.4,0,2.4,0.4,3.2,1.1
			s1.1,1.7,1.1,2.9c0,0.6-0.2,1.7-0.5,3.2l-2,9.8h-2.8l2.1-10c0.3-1.5,0.5-2.4,0.5-2.8c0-0.5-0.2-1-0.6-1.3s-0.9-0.5-1.6-0.5
			c-1,0-2,0.3-2.9,0.8s-1.7,1.3-2.2,2.2c-0.5,0.9-1,2.4-1.4,4.5l-1.5,7.1H813.9z"/>
		<path class="st6" d="M838.3,371l-0.5,2.3c-0.7,0.2-1.3,0.3-2,0.3c-1.1,0-2-0.3-2.7-0.8c-0.5-0.4-0.8-1-0.8-1.7
			c0-0.4,0.1-1.2,0.4-2.5l2-9.6h-2.2l0.5-2.2h2.2l0.9-4.1l3.2-2l-1.3,6h2.8l-0.5,2.2h-2.8l-1.9,9.2c-0.2,1.2-0.4,1.9-0.4,2.1
			c0,0.3,0.1,0.6,0.3,0.8c0.2,0.2,0.5,0.3,0.9,0.3C837.3,371.1,837.8,371.1,838.3,371z"/>
	</g>
	
		<linearGradient id="SVGID_00000183961741084881598510000004253562916170108599_" gradientUnits="userSpaceOnUse" x1="9.4981" y1="-83.9319" x2="694.2261" y2="-83.9319" gradientTransform="matrix(1.1138 -5.738770e-02 -2.988487e-02 -0.8088 71.7084 275.5123)">
		<stop  offset="0.137" style="stop-color:#CFD6D3"/>
		<stop  offset="0.2691" style="stop-color:#8E99AE"/>
		<stop  offset="0.4116" style="stop-color:#5C6D8F"/>
		<stop  offset="0.5503" style="stop-color:#384F78"/>
		<stop  offset="0.6816" style="stop-color:#1A3C69"/>
		<stop  offset="0.8038" style="stop-color:#002F5F"/>
		<stop  offset="0.9135" style="stop-color:#002759"/>
		<stop  offset="1" style="stop-color:#002457"/>
	</linearGradient>
	<path style="fill:url(#SVGID_00000183961741084881598510000004253562916170108599_);" d="M847.1,294.2
		c-258.5-25.9-511.2-10-761.8,62.3c6.7,7.1,11.2,13.6,17.7,18.3c3,2.2,10.6,2.7,14.8,1.3c73.1-23.9,148.3-41.7,225.1-54.4
		c90.7-15.1,182.2-25.7,274.4-27.2C693.4,293.2,769.5,294.2,847.1,294.2z"/>
</g>
</svg>
